<svg data-v-423bf9ae="" xmlns="http://www.w3.org/2000/svg" viewBox="0 0 209 90" class="iconLeft"><!----><!----><!----><g data-v-423bf9ae="" id="fc4cad9f-54f9-4fde-9658-4458dde52d39" fill="#25BDD6" transform="matrix(4.608294768854844,0,0,4.608294768854844,105.48387393826056,14.999998092651367)"><path d="M7.98 0L7.98 8.00C7.42 6.67 6.13 5.74 4.62 5.74C2.63 5.74 0.98 7.39 0.98 9.38C0.98 11.38 2.63 13.02 4.62 13.02C6.13 13.02 7.42 12.09 7.98 10.76L7.98 12.88L8.26 12.88L8.26 0ZM4.62 12.74C2.77 12.74 1.26 11.24 1.26 9.38C1.26 7.53 2.77 6.02 4.62 6.02C6.48 6.02 7.98 7.53 7.98 9.38C7.98 11.24 6.48 12.74 4.62 12.74ZM11.67 4.48C11.90 4.48 12.09 4.30 12.09 4.06C12.09 3.83 11.90 3.64 11.67 3.64C11.45 3.64 11.25 3.83 11.25 4.06C11.25 4.30 11.45 4.48 11.67 4.48ZM11.53 12.88L11.81 12.88L11.81 5.88L11.53 5.88ZM18.73 5.74C17.22 5.74 15.93 6.67 15.37 8.00L15.37 0L15.09 0L15.09 12.88L15.37 12.88L15.37 10.76C15.93 12.09 17.22 13.02 18.73 13.02C20.72 13.02 22.37 11.38 22.37 9.38C22.37 7.39 20.72 5.74 18.73 5.74ZM18.73 12.74C16.87 12.74 15.37 11.24 15.37 9.38C15.37 7.53 16.87 6.02 18.73 6.02C20.58 6.02 22.09 7.53 22.09 9.38C22.09 11.24 20.58 12.74 18.73 12.74Z"></path></g><!----><g data-v-423bf9ae="" id="3640f222-00ab-4da7-aed1-750541de6bd1" transform="matrix(2.8125,0,0,2.8125,0,0)" stroke="none" fill="#25BDD6"><path d="M4.029 14.362L14.362 4.028l.707.707L4.736 15.07zM17.135 27.47L27.47 17.135l.707.707-10.333 10.333zM4.029 17.841l.707-.707 10.333 10.334-.707.707zM17.135 4.735l.708-.707L28.176 14.36l-.707.707z"></path><g><path d="M16 1.414l1.683 1.683L16 4.779l-1.683-1.683L16 1.414M16 0l-3.097 3.097L16 6.194l3.097-3.097L16 0zM16 27.221l1.683 1.683L16 30.586l-1.683-1.683L16 27.221m0-1.415l-3.097 3.097L16 32l3.097-3.097L16 25.806zM3.097 14.317L4.779 16l-1.683 1.683L1.414 16l1.683-1.683m0-1.414L0 16l3.097 3.097L6.194 16l-3.097-3.097zM28.903 14.317L30.586 16l-1.683 1.683L27.221 16l1.682-1.683m0-1.414L25.806 16l3.097 3.097L32 16l-3.097-3.097z"></path></g></g><!----></svg>