<svg data-v-fde0c5aa="" xmlns="http://www.w3.org/2000/svg" viewBox="0 0 300 300" class="font"><!----><defs data-v-fde0c5aa=""><!----></defs><rect data-v-fde0c5aa="" fill="#161C60" x="0" y="0" width="300px" height="300px" class="logo-background-square"></rect><defs data-v-fde0c5aa=""><!----></defs><g data-v-fde0c5aa="" id="c61aaf44-3713-48d2-b5dc-6a91cc86d53f" fill="#25BDD6" transform="matrix(10.285179367001051,0,0,10.285179367001051,29.92052402416474,83.04347996673242)"><path d="M7.98 0L7.98 8.00C7.42 6.67 6.13 5.74 4.62 5.74C2.63 5.74 0.98 7.39 0.98 9.38C0.98 11.38 2.63 13.02 4.62 13.02C6.13 13.02 7.42 12.09 7.98 10.76L7.98 12.88L8.26 12.88L8.26 0ZM4.62 12.74C2.77 12.74 1.26 11.24 1.26 9.38C1.26 7.53 2.77 6.02 4.62 6.02C6.48 6.02 7.98 7.53 7.98 9.38C7.98 11.24 6.48 12.74 4.62 12.74ZM11.67 4.48C11.90 4.48 12.09 4.30 12.09 4.06C12.09 3.83 11.90 3.64 11.67 3.64C11.45 3.64 11.25 3.83 11.25 4.06C11.25 4.30 11.45 4.48 11.67 4.48ZM11.53 12.88L11.81 12.88L11.81 5.88L11.53 5.88ZM18.73 5.74C17.22 5.74 15.93 6.67 15.37 8.00L15.37 0L15.09 0L15.09 12.88L15.37 12.88L15.37 10.76C15.93 12.09 17.22 13.02 18.73 13.02C20.72 13.02 22.37 11.38 22.37 9.38C22.37 7.39 20.72 5.74 18.73 5.74ZM18.73 12.74C16.87 12.74 15.37 11.24 15.37 9.38C15.37 7.53 16.87 6.02 18.73 6.02C20.58 6.02 22.09 7.53 22.09 9.38C22.09 11.24 20.58 12.74 18.73 12.74Z"></path></g><!----><!----></svg>